<svg width="120" height="120" viewBox="0 0 120 120" fill="none" xmlns="http://www.w3.org/2000/svg">
<rect x="0.15" y="0.15" width="119.7" height="119.7" rx="59.85" stroke="#4D4D4D" stroke-width="0.3"/>
<path d="M39 53.5312C39 58.9765 41.1631 64.1987 45.0135 68.049C48.8638 71.8994 54.086 74.0625 59.5312 74.0625C64.9765 74.0625 70.1987 71.8994 74.049 68.049C77.8994 64.1987 80.0625 58.9765 80.0625 53.5312C80.0625 48.086 77.8994 42.8638 74.049 39.0135C70.1987 35.1631 64.9765 33 59.5312 33C54.086 33 48.8638 35.1631 45.0135 39.0135C41.1631 42.8638 39 48.086 39 53.5312Z" stroke="black" stroke-width="0.995455" stroke-linecap="round" stroke-linejoin="round"/>
<path d="M51.3187 55.3571C51.3187 55.3571 53.3719 55.3571 55.425 59.0062C55.425 59.0062 61.9457 49.8821 67.7437 48.0562" stroke="#0097E0" stroke-width="0.995455" stroke-linecap="round" stroke-linejoin="round"/>
<path d="M72.8983 68.5874L74.7324 77.3748C75.9095 83.0195 76.5008 85.8419 75.2881 87.1805C74.0781 88.5191 71.9757 87.3694 67.7709 85.0672L61.5458 81.659C60.5521 81.1169 60.0566 80.8432 59.531 80.8432C59.0054 80.8432 58.51 81.1169 57.5162 81.659L51.2912 85.0672C47.0864 87.3667 44.984 88.5191 43.774 87.1805C42.564 85.8419 43.1526 83.0195 44.3297 77.3748L46.1638 68.5874" stroke="black" stroke-width="0.995455" stroke-linejoin="round"/>
</svg>
