<svg width="120" height="120" viewBox="0 0 120 120" fill="none" xmlns="http://www.w3.org/2000/svg">
<rect x="0.15" y="0.15" width="119.7" height="119.7" rx="59.85" stroke="#4D4D4D" stroke-width="0.3"/>
<path d="M88 60C88 67.4261 85.05 74.548 79.799 79.799C74.548 85.05 67.4261 88 60 88C55.2017 88 50.6863 86.7916 46.7369 84.6665C41.2312 81.6985 37.5263 84.4573 34.2577 84.9524C34.0133 84.9874 33.764 84.964 33.5304 84.8841C33.2968 84.8042 33.0854 84.67 32.9137 84.4926C32.6573 84.2203 32.4876 83.878 32.4262 83.5091C32.3648 83.1401 32.4144 82.7613 32.5689 82.4206C33.8539 79.3996 35.0299 73.6699 33.4236 68.8421C32.4777 65.9902 31.997 63.0047 32 60C32 52.5739 34.95 45.452 40.201 40.201C45.452 34.95 52.574 32 60 32C67.4261 32 74.548 34.95 79.799 40.201C85.05 45.452 88 52.5739 88 60Z" stroke="black" stroke-linecap="round" stroke-linejoin="round"/>
<path d="M61.7272 51.4437L63.4872 54.9928C63.7272 55.4868 64.3672 55.9607 64.9072 56.0507L68.0962 56.5858C70.1362 56.9288 70.6162 58.4207 69.1462 59.8927L66.6662 62.3927C66.2462 62.8157 66.0162 63.6328 66.1462 64.2178L66.8562 67.3127C67.4162 69.7627 66.1262 70.7098 63.9762 69.4298L60.9862 67.6448C60.4462 67.3228 59.5562 67.3228 59.0062 67.6448L56.0182 69.4298C53.8782 70.7098 52.5782 69.7517 53.1382 67.3127L53.8482 64.2178C53.9782 63.6328 53.7482 62.8157 53.3282 62.3927L50.8482 59.8927C49.3892 58.4197 49.8592 56.9288 51.8982 56.5858L55.0882 56.0507C55.6182 55.9607 56.2582 55.4868 56.4982 54.9928L58.2582 51.4437C59.2182 49.5187 60.7782 49.5187 61.7282 51.4437" stroke="#0D99FF" stroke-linecap="round" stroke-linejoin="round"/>
</svg>
