<svg width="120" height="120" viewBox="0 0 120 120" fill="none" xmlns="http://www.w3.org/2000/svg">
<rect x="0.75" y="0.75" width="118.5" height="118.5" rx="59.25" stroke="#000000ff" stroke-width="1.5"/>
<path d="M59.9998 95.0003C63.5678 95.0003 67.0453 93.8447 69.9398 91.6971C72.8343 89.5494 74.999 86.5187 76.1273 83.0343C77.2556 79.5498 77.2903 75.7882 76.2264 72.2823C75.1626 68.7764 73.0541 65.704 70.1997 63.5002V35.5C70.1997 32.238 70.1997 30.607 69.6829 29.319C68.9928 27.6046 67.6696 26.2424 66.0042 25.532C64.7598 25 63.1686 25 59.9998 25C56.8311 25 55.2433 25 53.9955 25.532C52.3301 26.2424 51.0069 27.6046 50.3167 29.319C49.7999 30.607 49.7999 32.238 49.7999 35.5V63.5002C46.9456 65.704 44.8371 68.7764 43.7733 72.2823C42.7094 75.7882 42.7441 79.5498 43.8724 83.0343C45.0007 86.5187 47.1654 89.5494 50.0599 91.6971C52.9543 93.8447 56.4319 95.0003 59.9998 95.0003Z" stroke="black" stroke-linejoin="round"/>
<path d="M59.9996 70.5001C58.1962 70.5001 56.4666 71.2376 55.1914 72.5504C53.9161 73.8631 53.1997 75.6436 53.1997 77.5001C53.1997 79.3567 53.9161 81.1372 55.1914 82.4499C56.4666 83.7627 58.1962 84.5002 59.9996 84.5002C61.8031 84.5002 63.5327 83.7627 64.8079 82.4499C66.0832 81.1372 66.7996 79.3567 66.7996 77.5001C66.7996 75.6436 66.0832 73.8631 64.8079 72.5504C63.5327 71.2376 61.8031 70.5001 59.9996 70.5001ZM59.9996 70.5001V46" stroke="#54C3F1" stroke-linecap="round" stroke-linejoin="round"/>
</svg>
