<svg width="120" height="120" viewBox="0 0 120 120" fill="none" xmlns="http://www.w3.org/2000/svg">
<rect x="0.15" y="0.15" width="119.7" height="119.7" rx="59.85" stroke="#4D4D4D" stroke-width="0.3"/>
<path d="M52.3001 77.4501C51.2269 72.0703 46.2427 68 40.2581 68C33.4864 68 28 73.2043 28 79.6236C28 82.7083 29.2663 85.5096 31.3332 87.5886C31.7868 88.0476 32.0905 88.6727 31.9677 89.3166C31.7681 90.3638 31.3106 91.3447 30.6366 92.1705C32.403 92.4906 34.2257 92.2097 35.8138 91.3727C36.37 91.0784 36.6495 90.9326 36.8453 90.9029C36.983 90.8813 37.1625 90.9015 37.4501 90.9501" stroke="black" stroke-linecap="round" stroke-linejoin="round"/>
<path d="M40.15 87.2536C40.15 91.1754 43.4751 94.356 47.5751 94.356C48.0584 94.356 48.5372 94.3119 49.0115 94.2237C49.353 94.1603 49.5231 94.1279 49.6419 94.1454C49.7607 94.1643 49.9295 94.2534 50.267 94.433C51.2201 94.9406 52.3325 95.1201 53.4031 94.9203C52.9934 94.4154 52.716 93.8165 52.5957 93.1775C52.5215 92.7833 52.7051 92.4012 52.9818 92.1218C54.2711 90.8293 54.9966 89.0792 55.0001 87.2536C55.0001 83.3305 51.675 80.1499 47.5751 80.1499C43.4751 80.1499 40.15 83.3305 40.15 87.2536Z" stroke="#0097E0" stroke-linejoin="round"/>
<path d="M84.3345 62.3335V64.4668C84.3345 69.1788 79.5612 73.0002 73.6679 73.0002H68.3345" stroke="black" stroke-linecap="round" stroke-linejoin="round"/>
<path d="M47.001 41C47.001 32.1627 55.3583 25 65.6676 25C75.977 25 84.3343 32.1627 84.3343 41" stroke="black" stroke-linecap="square" stroke-linejoin="round"/>
<path d="M79.0009 45.8133C79.0009 44.8907 79.0009 44.4293 79.1396 44.0187C79.5423 42.824 80.6063 42.3627 81.6729 41.8773C82.8676 41.3307 83.4649 41.0587 84.0596 41.0107C84.7316 40.9573 85.4063 41.1013 85.9823 41.424C86.7449 41.8507 87.2783 42.6667 87.8223 43.328C90.3369 46.384 91.5956 47.912 92.0543 49.5947C92.4276 50.9547 92.4276 52.3787 92.0543 53.736C91.3849 56.1947 89.2649 58.2533 87.6943 60.1627C86.8916 61.136 86.4889 61.624 85.9823 61.9093C85.3964 62.2343 84.7273 62.3781 84.0596 62.3227C83.4649 62.2747 82.8676 62.0027 81.6703 61.456C80.6036 60.9707 79.5423 60.5093 79.1396 59.3147C79.0009 58.904 79.0009 58.4427 79.0009 57.52V45.8133ZM52.3343 45.8133C52.3343 44.6507 52.3023 43.608 51.3636 42.792C51.0223 42.496 50.5689 42.2907 49.6649 41.8773C48.4676 41.3333 47.8703 41.0587 47.2756 41.0107C45.4969 40.8667 44.5396 42.0827 43.5156 43.3307C40.9983 46.384 39.7396 47.912 39.2783 49.5973C38.9071 50.9528 38.9071 52.3832 39.2783 53.7387C39.9503 56.1947 42.0729 58.256 43.6409 60.1627C44.6303 61.3627 45.5769 62.4587 47.2756 62.3227C47.8703 62.2747 48.4676 62.0027 49.6649 61.456C50.5716 61.0453 51.0223 60.8373 51.3636 60.5413C52.3023 59.7253 52.3343 58.6827 52.3343 57.5227V45.8133Z" stroke="#0097E0"/>
</svg>
