<svg width="120" height="120" viewBox="0 0 120 120" fill="none" xmlns="http://www.w3.org/2000/svg">
<rect x="0.15" y="0.15" width="119.7" height="119.7" rx="59.85" stroke="#4D4D4D" stroke-width="0.3"/>
<path d="M47.0005 82.9995C47.0005 80.1015 47.9875 77.1735 50.3905 75.5595C53.3818 73.5581 56.9014 72.4928 60.5005 72.4995C64.2445 72.4995 67.7215 73.6275 70.6105 75.5595C73.0165 77.1735 74.0005 80.1015 74.0005 82.9995" stroke="black" stroke-linecap="round" stroke-linejoin="round"/>
<path d="M60.4999 64.9995C64.642 64.9995 67.9999 61.6416 67.9999 57.4995C67.9999 53.3574 64.642 49.9995 60.4999 49.9995C56.3577 49.9995 52.9999 53.3574 52.9999 57.4995C52.9999 61.6416 56.3577 64.9995 60.4999 64.9995Z" stroke="#0D99FF" stroke-linecap="round" stroke-linejoin="round"/>
<path d="M77.0001 57.5005C80.3301 57.5005 83.4261 58.6315 85.9911 60.5665C88.1691 62.2105 89.0001 64.9855 89.0001 67.7125V68.0005" stroke="black" stroke-linecap="round" stroke-linejoin="round"/>
<path d="M76.9999 50C80.3136 50 82.9999 47.3137 82.9999 44C82.9999 40.6863 80.3136 38 76.9999 38C73.6862 38 70.9999 40.6863 70.9999 44C70.9999 47.3137 73.6862 50 76.9999 50Z" stroke="#0D99FF" stroke-linecap="round" stroke-linejoin="round"/>
<path d="M44.0001 57.5005C40.6701 57.5005 37.5741 58.6315 35.0091 60.5665C32.8311 62.2105 32.0001 64.9855 32.0001 67.7125V68.0005" stroke="black" stroke-linecap="round" stroke-linejoin="round"/>
<path d="M44.0005 50C47.3142 50 50.0005 47.3137 50.0005 44C50.0005 40.6863 47.3142 38 44.0005 38C40.6868 38 38.0005 40.6863 38.0005 44C38.0005 47.3137 40.6868 50 44.0005 50Z" stroke="#0D99FF" stroke-linecap="round" stroke-linejoin="round"/>
</svg>
